<svg width="32" height="32" viewBox="0 0 40 40" fill="none" xmlns="http://www.w3.org/2000/svg">
<g clip-path="url(#clip0_13_5)">
<path d="M10,15V5h-3.75c-.69,0-1.25.56-1.25,1.25v7.71c0,.66.26,1.3.73,1.77l6.77,6.77h5l-7.5-7.5ZM17.5,5h-5v10h5V5ZM25,5h-5v10h5V5ZM22.5,35h5v-10h-5v10ZM6.25,25c-.69,0-1.25.56-1.25,1.25v7.5c0,.69.56,1.25,1.25,1.25h6.25v-10h-6.25ZM8.75,31.25c-.69,0-1.25-.56-1.25-1.25s.56-1.25,1.25-1.25,1.25.56,1.25,1.25-.56,1.25-1.25,1.25ZM27.5,17.5h-5l7.5,7.5v10h3.75c.69,0,1.25-.56,1.25-1.25v-7.71c0-.66-.26-1.3-.73-1.77l-6.77-6.77ZM33.75,5h-6.25v10h6.25c.69,0,1.25-.56,1.25-1.25v-7.5c0-.69-.56-1.25-1.25-1.25ZM31.25,11.25c-.69,0-1.25-.56-1.25-1.25s.56-1.25,1.25-1.25,1.25.56,1.25,1.25-.56,1.25-1.25,1.25ZM15,35h5v-10h-5v10Z" fill="black"/>  
</g>
<defs>
<clipPath id="clip0_13_5">
<rect width="40" height="40" fill="white"/>
</clipPath>
</defs>
</svg>
